<svg display="none" width="0" height="0" version="1.1" xmlns="http://www.w3.org/2000/svg" xmlns:xlink="http://www.w3.org/1999/xlink">
<defs>
<symbol id="icon-meetup" viewBox="0 0 1024 1024">
	<title>meetup</title>
	<path class="path1" d="M472.238 525.548c-3.082 0-6.185-0.246-8.479-3.471 0.696-12.196 4.68-21.309 8.55-30.106 1.731-3.963 3.471-7.905 4.884-12.155l1.731-5.007 1.423 5.079c3.348 11.786 2.284 33.751-2.898 45.568l-5.212 0.092zM857.221 448.553l-1.546 1.444c-26.327 24.822-35.871 66.959-42.752 104.489 21.965-5.939 40.632-26.235 48.691-48.558 4.915-13.629 8.305-34.335-3.359-55.521l-1.034-1.853zM376.3 516.178c1.382 0.543 2.949 1.178 5.13 1.178l1.096-0.225 2.662-1.311c2.068-10.097 1.423-23.173-1.731-35.881-8.1 9.196-13.046 19.927-14.92 33.659l-0.246 1.864 4.116-0.215c1.536-0.010 2.632 0.399 3.891 0.932zM972.8 755.558c0 18.186-14.735 32.922-32.922 32.922h-855.757c-18.186 0-32.922-14.735-32.922-32.922v-487.117c0-18.186 14.735-32.922 32.922-32.922h855.757c18.186 0 32.922 14.735 32.922 32.922v487.117zM327.987 576.553c-9.134-25.17-15.053-53.699-20.736-81.633-7.363-35.891-14.94-72.335-27.812-100.782-1.526 0.143-3.041 1.556-4.495 1.556-4.547 0-8.509 1.075-12.462 0.44-3.758-0.655-7.526 3.226-11.971 3.226-0.41 0-0.86 0-1.27 0-1.157 0-2.202-4.516-2.703-4.844-20.521 27.761-27.576 65.239-36.854 103.24-5.13-9.001-9.83-18.237-14.49-27.689-8.233-16.609-16.742-33.669-26.388-47.34-2.703-0.225-5.335-0.246-7.854-0.246-11.049 0-21.074 1.987-30.495 4.731l-0.481 25.508c-1.034 43.796-1.915 81.613 9.124 117.32 2.048 0.338 4.137 0.512 6.205 0.512 13.23 0 24.934-6.461 30.013-9.052 0.809-11.203-0.584-19.937-2.017-29.225-0.768-4.751-1.546-9.544 0.973-15.77 7.67 9.953 14.418 20.879 21.135 31.785 4.28 6.912 8.561 13.793 11.837 19.732 2.212 0.225 4.301 0.317 6.298 0.317 5.171 0 9.738-0.645 14.295-1.26 4.741-0.635 9.431-1.239 14.797-1.239l3.041 1.106c6.083-13.496 6.41-33.352 6.728-52.572 0.287-17.633 0.604-35.84 8.438-49.408 8.55 39.404 20.204 77.681 35.553 116.961 5.396-0.737 11.377-2.591 16.906-4.301 4.116-1.28 7.844-2.488 10.803-2.488 1.505 0 2.816 0.666 3.881 1.413zM433.992 584.806c-2.949-5.345-7.199-7.834-13.251-7.834-4.628 0-9.902 1.311-14.981 2.703-5.202 1.403-10.537 2.744-15.35 2.744-1.331 0-2.57-0.328-3.799-0.584-5.786-1.096-10.465-4.721-13.865-9.759-6.144-9.144-7.649-24.115-2.14-42.363 8.878 2.406 20.050 2.765 32.276 2.765 1.034 0 2.017 0 3.011 0 3.133 0 5.99 1.004 7.854 1.761 6.011-24.422 2.775-57.713-2.048-76.861-3.727-0.778-7.045-2.14-10.353-3.277-5.796-1.997-11.223-3.942-18.647-3.942-1.28 0-2.611-0.061-3.932 0.092-23.521 3.154-39.516 36.147-43.162 67.144-3.379 28.611 2.785 62.956 30.147 73.513 5.632 2.171 12.636 3.256 20.787 3.256 16.271-0.010 35.144-4.567 47.452-9.359zM527.34 577.833c-1.485-4.905-5.734-7.619-12.063-9.585-5.366 8.325-13.722 12.943-23.603 12.943-10.496 0-20.92-5.335-27.177-13.947-5.98-8.223-7.444-18.483-2.161-29.952 8.479 1.731 16.773 3.308 24.504 3.308 6.42 0 12.196-1.024 17.060-1.577-1.505-18.79 0.676-31.969 2.99-45.916 1.925-11.653 3.922-23.675 4.342-38.226-10.711-8.1-22.108-12.237-34.816-13.363-31.365 23.982-45.926 60.733-44.554 112.067 4.291 22.702 34.202 36.741 59.484 36.741 15.411-0.010 28.344-5.018 35.994-12.493zM635.996 507.453c-3.891-3.123-7.199-6.789-10.506-10.516-6.257-7.004-12.165-13.619-21.78-16.2-1.997 0.041-2.386 1.495-2.611 5.929-0.205 3.564-0.492 9.052-5.939 9.052l-3.738 0.041 0.164-1.3c1.331-15.913 0.164-34.243-1.116-54.559-1.761-28.805-3.604-55.747 1.505-80.108-6.339-7.608-16.005-11.633-34.724-11.633-0.246 0-0.471 0-0.696 0-1.546 0-2.949-4.803-3.369-5.642-9.636 29.645-4.956 62.126-0.43 97.628 2.611 20.255 5.059 39.148 2.068 57.477-3.707 0-7.465-0.461-11.1-0.748-3.236-0.276-6.431-0.614-9.288-0.614-5.366 0-8.571 0.932-10.506 3.123-2.181 2.447-2.826 6.636-2.703 11.694 7.393 5.079 20.193 5.427 32.563 5.745l7.793 1.772c0.338 10.824 1.188 21.146 2.017 31.498 1.26 15.145 2.499 30.812 2.191 47.882 3.277-0.451 6.226-0.614 9.093-0.788 5.53-0.358 10.772-0.686 16.712-1.393-0.184-12.083-0.635-23.603-1.065-34.693-0.584-15.493-1.157-30.198 0.195-46.090 5.478-1.567 12.124-1.925 18.534-2.273 10.742-0.604 21.862-1.208 26.737-5.284zM750.254 488.212c-7.69-6.298-17.234-17.172-28.109-17.172-0.86 0-1.71 0-2.468 0-1.167 0-2.161 2.98-2.703 2.437l-0.266 11.356c-0.727 31.14-1.761 74.281-31.549 84.634-2.836-18.698-3.604-39.117-4.321-57.385-0.379-9.738-0.737-18.565-0.41-24.74-2.898-1.393-5.571-2.888-8.192-4.485-7.404-4.444-14.367-8.591-25.62-10.066-4.485 53.545 0.901 89.006 15.974 105.37 6.205 6.748 14.203 10.199 23.757 10.199 6.707 0 14.326-1.649 21.893-4.332l2.877-4.434c5.376-8.233 8.909-13.701 16.947-19.804 2.048-3.666 4.229-8.192 6.451-11.704 9.841-15.79 19.139-32.666 15.739-59.873zM894.054 437.801c-16.404-9.605-30.689-14.234-43.725-14.234-16.22 0-30.28 7.291-42.998 22.333-23.941 28.262-28.928 87.112-32.369 116.746-1.444 0.614-3.021 1.096-4.618 1.546-4.157 1.239-8.069 2.406-9.564 4.342 12.585 14.582 15.053 39.311 17.459 63.181 1.874 18.432 3.758 37.489 9.165 50.432 2.99 0.645 7.199 0.983 12.851 0.983 2.652 0 5.437-0.082 8.212-0.082 4.68 0 9.288 0.205 12.943 1.321-8.714-21.975-12.114-51.753-9.411-95.263 35.512-8.397 67.082-33.597 82.35-65.772 9.216-19.436 16.548-50.176-0.297-85.535z"></path>
</symbol>
<symbol id="icon-meetup_modified" viewBox="0 0 1024 1024">
	<title>meetup_modified</title>
	<path class="path1" d="M972.8 755.558c0 18.186-14.735 32.922-32.922 32.922h-855.757c-18.186 0-32.922-14.735-32.922-32.922v-487.117c0-18.186 14.735-32.922 32.922-32.922h855.757c18.186 0 32.922 14.735 32.922 32.922v487.117z"></path>
	<path class="path2" d="M55.322 342.78h912.271v384h-912.271v-384z"></path>
	<path class="path3" d="M329.072 599.333c-9.134-25.17-15.053-53.699-20.736-81.633-7.363-35.891-14.94-72.335-27.812-100.782-1.526 0.143-3.041 1.556-4.495 1.556-4.547 0-8.509 1.075-12.462 0.44-3.758-0.655-7.526 3.226-11.971 3.226-0.41 0-0.86 0-1.27 0-1.157 0-2.202-4.516-2.703-4.844-20.521 27.761-27.576 65.239-36.854 103.24-5.13-9.001-9.83-18.237-14.49-27.689-8.233-16.609-16.742-33.669-26.388-47.34-2.703-0.225-5.335-0.246-7.854-0.246-11.049 0-21.074 1.987-30.495 4.731l-0.481 25.508c-1.034 43.796-1.915 81.613 9.124 117.32 2.048 0.338 4.137 0.512 6.205 0.512 13.23 0 24.934-6.461 30.013-9.052 0.809-11.203-0.584-19.937-2.017-29.225-0.768-4.751-1.546-9.544 0.973-15.77 7.67 9.953 14.418 20.879 21.135 31.785 4.28 6.912 8.561 13.793 11.837 19.732 2.212 0.225 4.301 0.317 6.298 0.317 5.171 0 9.738-0.645 14.295-1.26 4.741-0.635 9.431-1.239 14.797-1.239l3.041 1.106c6.083-13.496 6.41-33.352 6.728-52.572 0.287-17.633 0.604-35.84 8.438-49.408 8.55 39.404 20.204 77.681 35.553 116.961 5.396-0.737 11.377-2.591 16.906-4.301 4.116-1.28 7.844-2.488 10.803-2.488 1.505 0 2.816 0.666 3.881 1.413z"></path>
	<path class="path4" d="M435.076 607.586c-2.949-5.345-7.199-7.834-13.251-7.834-4.628 0-9.902 1.311-14.981 2.703-5.202 1.403-10.537 2.744-15.35 2.744-1.331 0-2.57-0.328-3.799-0.584-5.786-1.096-10.465-4.721-13.865-9.759-6.144-9.144-7.649-24.115-2.14-42.363 8.878 2.406 20.050 2.765 32.276 2.765 1.034 0 2.017 0 3.011 0 3.133 0 5.99 1.004 7.854 1.761 6.011-24.422 2.775-57.713-2.048-76.861-3.727-0.778-7.045-2.14-10.353-3.277-5.796-1.997-11.223-3.942-18.647-3.942-1.28 0-2.611-0.061-3.932 0.092-23.521 3.154-39.516 36.147-43.162 67.144-3.379 28.611 2.785 62.956 30.147 73.513 5.632 2.171 12.636 3.256 20.787 3.256 16.271-0.010 35.144-4.567 47.452-9.359z"></path>
	<path class="path5" d="M377.384 538.958c1.382 0.543 2.949 1.178 5.13 1.178l1.096-0.225 2.662-1.311c2.068-10.097 1.423-23.173-1.731-35.881-8.1 9.196-13.046 19.927-14.92 33.659l-0.246 1.864 4.116-0.215c1.536-0.010 2.632 0.399 3.891 0.932z"></path>
	<path class="path6" d="M528.424 600.613c-1.485-4.905-5.734-7.619-12.063-9.585-5.366 8.325-13.722 12.943-23.603 12.943-10.496 0-20.92-5.335-27.177-13.947-5.98-8.223-7.444-18.483-2.161-29.952 8.479 1.731 16.773 3.308 24.504 3.308 6.42 0 12.196-1.024 17.060-1.577-1.505-18.79 0.676-31.969 2.99-45.916 1.925-11.653 3.922-23.675 4.342-38.226-10.711-8.1-22.108-12.237-34.816-13.363-31.365 23.982-45.926 60.733-44.554 112.067 4.291 22.702 34.202 36.741 59.484 36.741 15.411-0.010 28.344-5.018 35.994-12.493z"></path>
	<path class="path7" d="M473.323 548.327c-3.082 0-6.185-0.246-8.479-3.471 0.696-12.196 4.68-21.309 8.55-30.106 1.731-3.963 3.471-7.905 4.884-12.155l1.731-5.007 1.423 5.079c3.348 11.786 2.284 33.751-2.898 45.568l-5.212 0.092z"></path>
	<path class="path8" d="M637.081 530.233c-3.891-3.123-7.199-6.789-10.506-10.516-6.257-7.004-12.165-13.619-21.78-16.2-1.997 0.041-2.386 1.495-2.611 5.929-0.205 3.564-0.492 9.052-5.939 9.052l-3.738 0.041 0.164-1.3c1.331-15.913 0.164-34.243-1.116-54.559-1.761-28.805-3.604-55.747 1.505-80.108-6.339-7.608-16.005-11.633-34.724-11.633-0.246 0-0.471 0-0.696 0-1.546 0-2.949-4.803-3.369-5.642-9.636 29.645-4.956 62.126-0.43 97.628 2.611 20.255 5.059 39.148 2.068 57.477-3.707 0-7.465-0.461-11.1-0.748-3.236-0.276-6.431-0.614-9.288-0.614-5.366 0-8.571 0.932-10.506 3.123-2.181 2.447-2.826 6.636-2.703 11.694 7.393 5.079 20.193 5.427 32.563 5.745l7.793 1.772c0.338 10.824 1.188 21.146 2.017 31.498 1.26 15.145 2.499 30.812 2.191 47.882 3.277-0.451 6.226-0.614 9.093-0.788 5.53-0.358 10.772-0.686 16.712-1.393-0.184-12.083-0.635-23.603-1.065-34.693-0.584-15.493-1.157-30.198 0.195-46.090 5.478-1.567 12.124-1.925 18.534-2.273 10.742-0.604 21.862-1.208 26.737-5.284z"></path>
	<path class="path9" d="M751.339 510.992c-7.69-6.298-17.234-17.172-28.109-17.172-0.86 0-1.71 0-2.468 0-1.167 0-2.161 2.98-2.703 2.437l-0.266 11.356c-0.727 31.14-1.761 74.281-31.549 84.634-2.836-18.698-3.604-39.117-4.321-57.385-0.379-9.738-0.737-18.565-0.41-24.74-2.898-1.393-5.571-2.888-8.192-4.485-7.404-4.444-14.367-8.591-25.62-10.066-4.485 53.545 0.901 89.006 15.974 105.37 6.205 6.748 14.203 10.199 23.757 10.199 6.707 0 14.326-1.649 21.893-4.332l2.877-4.434c5.376-8.233 8.909-13.701 16.947-19.804 2.048-3.666 4.229-8.192 6.451-11.704 9.841-15.79 19.139-32.666 15.739-59.873z"></path>
	<path class="path10" d="M895.139 460.581c-16.404-9.605-30.689-14.234-43.725-14.234-16.22 0-30.28 7.291-42.998 22.333-23.941 28.262-28.928 87.112-32.369 116.746-1.444 0.614-3.021 1.096-4.618 1.546-4.157 1.239-8.069 2.406-9.564 4.342 12.585 14.582 15.053 39.311 17.459 63.181 1.874 18.432 3.758 37.489 9.165 50.432 2.99 0.645 7.199 0.983 12.851 0.983 2.652 0 5.437-0.082 8.212-0.082 4.68 0 9.288 0.205 12.943 1.321-8.714-21.975-12.114-51.753-9.411-95.263 35.512-8.397 67.082-33.597 82.35-65.772 9.216-19.436 16.548-50.176-0.297-85.535z"></path>
	<path class="path11" d="M858.306 461.57l-1.546 1.444c-26.327 24.822-35.871 66.959-42.752 104.489 21.965-5.939 40.632-26.235 48.691-48.558 4.915-13.629 8.305-34.335-3.359-55.521l-1.034-1.853z"></path>
</symbol>
<symbol id="icon-quora" viewBox="0 0 1024 1024">
	<title>quora</title>
	<path class="path1" d="M727.224 796.334c116.654-73.175 194.396-203.991 194.396-353.249 0-229.304-183.398-415.201-409.62-415.201s-409.58 185.897-409.58 415.201c0 229.325 183.357 415.201 409.58 415.201 33.28 0 65.597-4.116 96.563-11.725 38.881 70.738 98.12 120.801 223.857 96.87v-70.38c0 0-80.64-20.275-105.196-76.718zM724.357 497.981c0 69.325-22.057 132.239-57.897 178.719-45.015-47.923-115.579-87.316-205.117-82.299v81.603c0 0 60.744 2.406 102.318 73.861-15.575 4.577-31.795 7.066-48.517 7.066-115.558 0-209.193-115.927-209.193-258.959 0-18.35 0-88.617 0-106.977 0-143.022 93.635-258.959 209.193-258.959s209.224 115.937 209.224 258.959c-0.010 18.371-0.010 88.637-0.010 106.988z"></path>
</symbol>
<symbol id="icon-google-plus" viewBox="0 0 1024 1024">
	<title>google-plus</title>
	<path class="path1" d="M559.066 64c0 0-200.956 0-267.94 0-120.12 0-233.17 91.006-233.17 196.422 0 107.726 81.882 194.666 204.088 194.666 8.498 0 16.756-0.17 24.842-0.752-7.93 15.186-13.602 32.288-13.602 50.042 0 29.938 16.104 54.21 36.468 74.024-15.386 0-30.242 0.448-46.452 0.448-148.782-0.002-263.3 94.758-263.3 193.020 0 96.778 125.542 157.314 274.334 157.314 169.624 0 263.306-96.244 263.306-193.028 0-77.6-22.896-124.072-93.686-174.134-24.216-17.144-70.53-58.836-70.53-83.344 0-28.72 8.196-42.868 51.428-76.646 44.312-34.624 75.672-83.302 75.672-139.916 0-67.406-30.020-133.098-86.372-154.772h84.954l59.96-43.344zM465.48 719.458c2.126 8.972 3.284 18.206 3.284 27.628 0 78.2-50.392 139.31-194.974 139.31-102.842 0-177.116-65.104-177.116-143.3 0-76.642 92.126-140.444 194.964-139.332 24 0.254 46.368 4.116 66.67 10.69 55.826 38.826 95.876 60.762 107.172 105.004zM300.818 427.776c-69.038-2.064-134.636-77.226-146.552-167.86-11.916-90.666 34.37-160.042 103.388-157.99 69.010 2.074 134.638 74.814 146.558 165.458 11.906 90.66-34.39 162.458-103.394 160.392zM832 256v-192h-64v192h-192v64h192v192h64v-192h192v-64z"></path>
</symbol>
<symbol id="icon-google-plus2" viewBox="0 0 1024 1024">
	<title>google-plus2</title>
	<path class="path1" d="M0.806 869.664c-0.244-2.532-0.452-5.070-0.584-7.63 0.13 2.56 0.34 5.098 0.584 7.63zM235.908 565.148c92.010 2.738 153.734-92.698 137.862-213.198-15.894-120.48-103.396-217.168-195.408-219.922-92.026-2.73-153.74 89.482-137.852 210 15.882 120.468 103.352 220.374 195.398 223.12zM1024 256v-85.31c0-93.88-76.782-170.69-170.658-170.69h-682.656c-92.276 0-168.012 74.232-170.564 165.926 58.362-51.386 139.324-94.316 222.874-94.316 89.304 0 357.244 0 357.244 0l-79.948 67.618h-113.268c75.13 28.804 115.156 116.124 115.156 205.722 0 75.248-41.81 139.954-100.888 185.968-57.644 44.902-68.572 63.708-68.572 101.878 0 32.578 61.746 88 94.032 110.788 94.382 66.538 124.916 128.312 124.916 231.456 0 16.428-2.042 32.83-6.066 48.96h307.742c93.874 0 170.656-76.75 170.656-170.69v-533.308h-192v191.998h-64v-192h-191.998v-64h191.998v-192h64v192h192zM185.886 765.936c21.614 0 41.422-0.59 61.936-0.59-27.146-26.334-48.626-58.6-48.626-98.38 0-23.608 7.564-46.336 18.134-66.52-10.782 0.77-21.79 0.994-33.126 0.994-74.356 0-137.506-24.076-184.204-63.854v67.242l0.006 201.73c53.44-25.374 116.888-40.622 185.88-40.622zM3.42 887.258c-1.112-5.458-1.966-11.006-2.542-16.634 0.574 5.628 1.43 11.176 2.542 16.634zM455.45 952.846c-15.058-58.806-68.454-87.964-142.888-139.568-27.072-8.732-56.894-13.874-88.894-14.208-89.618-0.964-173.108 34.942-220.216 88.372 15.92 77.706 85.034 136.558 167.234 136.558h286.444c1.816-11.128 2.696-22.632 2.696-34.432 0-12.534-1.534-24.792-4.376-36.722z"></path>
</symbol>
<symbol id="icon-google-plus3" viewBox="0 0 1024 1024">
	<title>google-plus3</title>
	<path class="path1" d="M437.006 818.162c0 75.068-46.39 134.392-177.758 139.176-76.984-43.786-141.49-106.952-186.908-182.866 23.69-58.496 97.692-103.046 182.316-102.114 24.022 0.252 46.41 4.114 66.744 10.7 55.908 38.866 101 63.152 112.324 107.448 2.114 8.964 3.282 18.206 3.282 27.656zM512 0c-147.94 0-281.196 62.77-374.666 163.098 36.934-20.452 80.538-32.638 126.902-32.638 67.068 0 256.438 0 256.438 0l-57.304 60.14h-67.31c47.496 27.212 72.752 83.248 72.752 145.012 0 56.692-31.416 102.38-75.78 137.058-43.28 33.802-51.492 47.966-51.492 76.734 0 24.542 51.722 61.098 75.5 78.936 82.818 62.112 99.578 101.184 99.578 178.87 0 78.726-68.936 157.104-185.866 183.742 56.348 21.338 117.426 33.048 181.248 33.048 282.77 0 512-229.23 512-512s-229.23-512-512-512zM768 384v128h-64v-128h-128v-64h128v-128h64v128h128v64h-128zM365.768 339.472c11.922 90.776-27.846 149.19-96.934 147.134-69.126-2.082-134.806-65.492-146.74-156.242-11.928-90.788 34.418-160.254 103.53-158.196 69.090 2.074 128.22 76.542 140.144 167.304zM220.886 642.068c-74.68 0-138.128 25.768-182.842 63.864-24.502-59.82-38.044-125.29-38.044-193.932 0-56.766 9.256-111.368 26.312-162.396 7.374 99.442 77.352 176.192 192.97 176.192 8.514 0 16.764-0.442 24.874-1.022-7.95 15.23-13.622 32.19-13.622 49.982 0 29.97 16.488 47.070 36.868 66.894-15.402 0-30.27 0.418-46.516 0.418z"></path>
</symbol>
<symbol id="icon-facebook" viewBox="0 0 1024 1024">
	<title>facebook</title>
	<path class="path1" d="M672 192c-88.366 0-160 71.634-160 160v96h-128v128h128v448h128v-448h144l32-128h-176v-96c0-17.672 14.326-32 32-32h160v-128h-160z"></path>
</symbol>
<symbol id="icon-facebook2" viewBox="0 0 1024 1024">
	<title>facebook2</title>
	<path class="path1" d="M853.35 0h-682.702c-94.25 0-170.648 76.42-170.648 170.686v682.63c0 94.266 76.398 170.684 170.648 170.684h341.352v-448h-128v-128h128v-96c0-88.366 71.634-160 160-160h160v128h-160c-17.674 0-32 14.328-32 32v96h176l-32 128h-144v448h213.35c94.25 0 170.65-76.418 170.65-170.684v-682.63c0-94.266-76.4-170.686-170.65-170.686z"></path>
</symbol>
<symbol id="icon-facebook3" viewBox="0 0 1024 1024">
	<title>facebook3</title>
	<path class="path1" d="M512 0c-282.77 0-512 229.23-512 512s229.23 512 512 512v-384h-128v-128h128v-96c0-88.366 71.632-160 160-160h160v128h-160c-17.674 0-32 14.328-32 32v96h176l-32 128h-144v367.87c220.828-56.838 384-257.3 384-495.87 0-282.77-229.23-512-512-512z"></path>
</symbol>
<symbol id="icon-twitter" viewBox="0 0 1024 1024">
	<title>twitter</title>
	<path class="path1" d="M1024 194.418c-37.676 16.708-78.164 28.002-120.66 33.080 43.372-26 76.686-67.17 92.372-116.23-40.596 24.078-85.556 41.56-133.41 50.98-38.32-40.83-92.922-66.34-153.346-66.34-116.022 0-210.088 94.058-210.088 210.078 0 16.466 1.858 32.5 5.44 47.878-174.6-8.764-329.402-92.4-433.018-219.506-18.084 31.028-28.446 67.116-28.446 105.618 0 72.888 37.088 137.192 93.46 174.866-34.438-1.092-66.832-10.542-95.154-26.278-0.020 0.876-0.020 1.756-0.020 2.642 0 101.788 72.418 186.696 168.522 206-17.626 4.8-36.188 7.372-55.348 7.372-13.538 0-26.698-1.32-39.528-3.772 26.736 83.46 104.32 144.206 196.252 145.896-71.9 56.35-162.486 89.934-260.916 89.934-16.958 0-33.68-0.994-50.116-2.94 92.972 59.61 203.402 94.394 322.042 94.394 386.422 0 597.736-320.124 597.736-597.744 0-9.108-0.206-18.168-0.61-27.18 41.056-29.62 76.672-66.62 104.836-108.748z"></path>
</symbol>
<symbol id="icon-twitter2" viewBox="0 0 1024 1024">
	<title>twitter2</title>
	<path class="path1" d="M853.342 0h-682.656c-93.874 0-170.686 76.81-170.686 170.69v682.624c0 93.936 76.812 170.686 170.686 170.686h682.656c93.876 0 170.658-76.75 170.658-170.69v-682.62c0-93.88-76.782-170.69-170.658-170.69zM766.478 381.48c0.252 5.632 0.38 11.296 0.38 16.988 0 173.51-132.070 373.588-373.584 373.588-74.15 0-143.168-21.738-201.276-58.996 10.272 1.218 20.724 1.84 31.322 1.84 61.518 0 118.134-20.992 163.072-56.21-57.458-1.054-105.948-39.020-122.658-91.184 8.018 1.532 16.244 2.36 24.704 2.36 11.976 0 23.578-1.61 34.592-4.61-60.064-12.066-105.326-65.132-105.326-128.75 0-0.554 0-1.104 0.012-1.652 17.7 9.834 37.948 15.742 59.47 16.424-35.232-23.546-58.414-63.736-58.414-109.292 0-24.064 6.476-46.62 17.78-66.010 64.76 79.44 161.51 131.712 270.634 137.19-2.238-9.612-3.4-19.632-3.4-29.924 0-72.512 58.792-131.298 131.304-131.298 37.766 0 71.892 15.944 95.842 41.462 29.908-5.886 58.008-16.814 83.38-31.862-9.804 30.662-30.624 56.394-57.732 72.644 26.56-3.174 51.866-10.232 75.412-20.674-17.594 26.328-39.854 49.454-65.514 67.966z"></path>
</symbol>
<symbol id="icon-twitter3" viewBox="0 0 1024 1024">
	<title>twitter3</title>
	<path class="path1" d="M512 0c-282.77 0-512 229.23-512 512s229.23 512 512 512 512-229.23 512-512-229.23-512-512-512zM766.478 381.48c0.252 5.632 0.38 11.296 0.38 16.988 0 173.51-132.070 373.588-373.584 373.588-74.15 0-143.168-21.738-201.276-58.996 10.272 1.218 20.724 1.84 31.322 1.84 61.518 0 118.134-20.992 163.072-56.21-57.458-1.054-105.948-39.020-122.658-91.184 8.018 1.532 16.244 2.36 24.704 2.36 11.976 0 23.578-1.61 34.592-4.61-60.064-12.066-105.326-65.132-105.326-128.75 0-0.554 0-1.104 0.012-1.652 17.7 9.834 37.948 15.742 59.47 16.424-35.232-23.546-58.414-63.736-58.414-109.292 0-24.064 6.476-46.62 17.78-66.010 64.76 79.44 161.51 131.712 270.634 137.19-2.238-9.612-3.4-19.632-3.4-29.924 0-72.512 58.792-131.298 131.304-131.298 37.766 0 71.892 15.944 95.842 41.462 29.908-5.886 58.008-16.814 83.38-31.862-9.804 30.662-30.624 56.394-57.732 72.644 26.56-3.174 51.866-10.232 75.412-20.674-17.594 26.328-39.854 49.454-65.514 67.966z"></path>
</symbol>
<symbol id="icon-feed2" viewBox="0 0 1024 1024">
	<title>feed2</title>
	<path class="path1" d="M136.294 750.93c-75.196 0-136.292 61.334-136.292 136.076 0 75.154 61.1 135.802 136.292 135.802 75.466 0 136.494-60.648 136.494-135.802-0.002-74.742-61.024-136.076-136.494-136.076zM0.156 347.93v196.258c127.784 0 247.958 49.972 338.458 140.512 90.384 90.318 140.282 211.036 140.282 339.3h197.122c-0.002-372.82-303.282-676.070-675.862-676.070zM0.388 0v196.356c455.782 0 826.756 371.334 826.756 827.644h196.856c0-564.47-459.254-1024-1023.612-1024z"></path>
</symbol>
<symbol id="icon-feed3" viewBox="0 0 1024 1024">
	<title>feed3</title>
	<path class="path1" d="M853.34 0h-682.654c-93.876 0-170.686 76.812-170.686 170.688v682.628c0 93.934 76.812 170.684 170.688 170.684h682.652c93.876 0 170.66-76.748 170.66-170.684v-682.628c0-93.876-76.784-170.688-170.66-170.688zM278.944 831.248c-47.97 0-86.944-38.692-86.944-86.628 0-47.684 38.972-86.812 86.944-86.812 48.158 0 87.060 39.128 87.060 86.812-0.002 47.936-38.904 86.628-87.060 86.628zM497.468 831.996c0-81.81-31.808-158.818-89.46-216.444-57.714-57.75-134.376-89.626-215.904-89.626v-125.186c237.652 0 431.126 193.442 431.126 431.254l-125.762 0.002zM719.628 831.996c0-291.062-236.658-527.94-527.376-527.94v-125.248c360.002 0 652.946 293.124 652.946 653.192l-125.57-0.004z"></path>
</symbol>
<symbol id="icon-feed4" viewBox="0 0 1024 1024">
	<title>feed4</title>
	<path class="path1" d="M512 0c-282.77 0-512 229.23-512 512s229.23 512 512 512 512-229.23 512-512-229.23-512-512-512zM320 768c-35.346 0-64-28.654-64-64s28.654-64 64-64 64 28.654 64 64-28.654 64-64 64zM496 768c0-132.336-107.664-240-240-240v-96c185.272 0 336 150.728 336 336h-96zM688 768c0-115.39-44.936-223.876-126.53-305.47s-190.078-126.53-305.47-126.53v-96c141.034 0 273.626 54.922 373.354 154.648 99.724 99.726 154.646 232.318 154.646 373.352h-96z"></path>
</symbol>
<symbol id="icon-github" viewBox="0 0 1024 1024">
	<title>github</title>
	<path class="path1" d="M512.008 12.642c-282.738 0-512.008 229.218-512.008 511.998 0 226.214 146.704 418.132 350.136 485.836 25.586 4.738 34.992-11.11 34.992-24.632 0-12.204-0.48-52.542-0.696-95.324-142.448 30.976-172.504-60.41-172.504-60.41-23.282-59.176-56.848-74.916-56.848-74.916-46.452-31.778 3.51-31.124 3.51-31.124 51.4 3.61 78.476 52.766 78.476 52.766 45.672 78.27 119.776 55.64 149.004 42.558 4.588-33.086 17.852-55.68 32.506-68.464-113.73-12.942-233.276-56.85-233.276-253.032 0-55.898 20.004-101.574 52.76-137.428-5.316-12.9-22.854-64.972 4.952-135.5 0 0 43.006-13.752 140.84 52.49 40.836-11.348 84.636-17.036 128.154-17.234 43.502 0.198 87.336 5.886 128.256 17.234 97.734-66.244 140.656-52.49 140.656-52.49 27.872 70.528 10.35 122.6 5.036 135.5 32.82 35.856 52.694 81.532 52.694 137.428 0 196.654-119.778 239.95-233.79 252.624 18.364 15.89 34.724 47.046 34.724 94.812 0 68.508-0.596 123.644-0.596 140.508 0 13.628 9.222 29.594 35.172 24.566 203.322-67.776 349.842-259.626 349.842-485.768 0-282.78-229.234-511.998-511.992-511.998z"></path>
</symbol>
<symbol id="icon-github2" viewBox="0 0 1024 1024">
	<title>github2</title>
	<path class="path1" d="M0 556.41c0 46.398 4.34 88.38 13.022 125.934 8.678 37.554 20.696 70.184 36.052 97.892s34.884 52.078 58.586 73.108c23.7 21.032 49.406 38.224 77.112 51.576 27.706 13.35 59.336 24.198 94.888 32.546 35.552 8.346 71.856 14.188 108.91 17.528 37.054 3.338 77.78 5.006 122.178 5.006 44.732 0 85.628-1.668 122.68-5.006 37.054-3.34 73.442-9.184 109.16-17.528s67.512-19.192 95.388-32.546c27.876-13.354 53.746-30.544 77.616-51.576 23.87-21.030 43.566-45.404 59.086-73.108s27.622-60.336 36.302-97.892c8.68-37.556 13.020-79.536 13.020-125.934 0-82.788-27.708-154.394-83.118-214.816 3.004-8.012 5.758-17.108 8.262-27.29s4.84-24.702 7.010-43.564c2.17-18.862 1.336-40.642-2.504-65.346-3.838-24.704-10.932-49.906-21.284-75.612l-7.51-1.502c-5.342-1-14.106-0.75-26.29 0.752s-26.372 4.506-42.562 9.014c-16.19 4.506-37.054 13.186-62.592 26.038s-52.494 28.958-80.87 48.32c-48.736-13.352-115.668-20.030-200.792-20.030-84.792 0-151.556 6.678-200.294 20.030-28.376-19.362-55.5-35.468-81.37-48.32s-46.484-21.532-61.84-26.038c-15.354-4.508-29.71-7.428-43.062-8.764-13.354-1.336-21.784-1.752-25.288-1.252s-6.26 1.086-8.262 1.752c-10.348 25.706-17.442 50.906-21.28 75.612-3.838 24.704-4.674 46.486-2.504 65.346s4.508 33.382 7.010 43.564c2.504 10.182 5.258 19.278 8.262 27.29-55.414 60.422-83.122 132.026-83.122 214.816zM125.684 682.094c0-48.070 21.866-92.136 65.596-132.194 13.018-12.020 28.208-21.114 45.566-27.292 17.358-6.176 36.97-9.68 58.836-10.516 21.866-0.834 42.812-0.668 62.842 0.502 20.028 1.168 44.732 2.754 74.108 4.756 29.376 2.004 54.748 3.004 76.112 3.004 21.366 0 46.736-1 76.112-3.004 29.378-2.002 54.078-3.588 74.11-4.756 20.030-1.17 40.974-1.336 62.842-0.502 21.866 0.836 41.476 4.34 58.838 10.516 17.356 6.176 32.544 15.27 45.564 27.292 43.73 39.394 65.598 83.456 65.598 132.194 0 28.712-3.59 54.162-10.768 76.364-7.178 22.2-16.358 40.81-27.542 55.83s-26.704 27.79-46.568 38.306c-19.862 10.516-39.222 18.61-58.084 24.288-18.862 5.674-43.066 10.098-72.608 13.27-29.546 3.172-55.916 5.092-79.118 5.758-23.2 0.668-52.66 1.002-88.378 1.002s-65.178-0.334-88.378-1.002c-23.2-0.666-49.574-2.586-79.116-5.758s-53.744-7.596-72.606-13.27c-18.86-5.678-38.222-13.774-58.084-24.288s-35.386-23.282-46.568-38.306c-11.182-15.022-20.364-33.63-27.54-55.83-7.178-22.202-10.766-47.656-10.766-76.364zM640 672c0-53.019 28.654-96 64-96s64 42.981 64 96c0 53.019-28.654 96-64 96s-64-42.981-64-96zM256 672c0-53.019 28.654-96 64-96s64 42.981 64 96c0 53.019-28.654 96-64 96s-64-42.981-64-96z"></path>
</symbol>
<symbol id="icon-github3" viewBox="0 0 1024 1024">
	<title>github3</title>
	<path class="path1" d="M512 831.892c-19.154 0-38.308-9.916-58.142-29.75-7.81-7.81-7.81-20.474 0-28.286 7.81-7.808 20.474-7.808 28.286 0 12.206 12.21 21.972 18.144 29.856 18.144 7.882 0 17.65-5.934 29.858-18.142 7.812-7.808 20.472-7.808 28.286 0 7.81 7.81 7.81 20.474 0 28.286-19.836 19.832-38.99 29.748-58.144 29.748zM0 525.492c0 49.892 4.266 95.122 12.8 135.682s20.534 75.74 36 105.532c15.466 29.792 35.022 55.904 58.666 78.34s49.332 40.92 77.066 55.458c27.734 14.536 59.466 26.296 95.2 35.266 35.732 8.974 72.088 15.256 109.066 18.846s77.69 5.384 122.134 5.384c44.444 0 85.242-1.79 122.398-5.38s73.602-9.872 109.332-18.846c35.734-8.974 67.558-20.73 95.468-35.266 27.91-14.538 53.778-33.026 77.598-55.458 23.824-22.436 43.47-48.548 58.934-78.34 15.47-29.794 27.56-64.974 36.27-105.532 8.71-40.56 13.066-85.788 13.066-135.68 0-89.38-27.736-166.372-83.2-230.982 3.2-8.616 5.954-18.486 8.266-29.614 2.308-11.128 4.532-26.832 6.664-47.112 2.138-20.282 1.336-43.704-2.398-70.264-3.734-26.564-10.754-53.664-21.066-81.302l-8-1.618c-5.332-1.076-14.042-0.718-26.132 1.080-12.086 1.794-26.222 5.022-42.398 9.69-16.176 4.664-37.066 13.908-62.668 27.728-25.598 13.818-52.62 31.318-81.066 52.496-48.356-14.718-115.020-30.116-200-30.116-84.976 0-151.822 15.396-200.53 30.114-28.446-21.18-55.556-38.588-81.334-52.228-25.78-13.642-46.402-22.974-61.868-27.998-15.468-5.024-29.778-8.256-42.934-9.69-13.156-1.436-21.602-1.886-25.334-1.346-3.732 0.538-6.488 1.166-8.266 1.884-10.314 27.64-17.424 54.74-21.336 81.304-3.91 26.56-4.8 49.892-2.666 69.992 2.134 20.102 4.444 35.898 6.934 47.382 2.49 11.486 5.334 21.358 8.534 29.614-55.466 64.25-83.2 141.242-83.2 230.98zM136.536 639.404c0-58.022 21.332-110.638 64-157.856 12.8-14.406 27.646-25.312 44.534-32.712 16.89-7.402 36.088-11.606 57.6-12.606s42.044-0.8 61.6 0.6c19.556 1.402 43.734 3.302 72.534 5.702 28.798 2.404 53.688 3.602 74.666 3.602 20.976 0 45.868-1.2 74.664-3.602 28.806-2.4 52.982-4.3 72.536-5.702 19.56-1.4 40.090-1.6 61.602-0.6 21.512 1.002 40.802 5.204 57.868 12.606 17.066 7.4 32 18.306 44.8 32.712 42.664 47.218 64 99.834 64 157.856 0 34.012-3.554 64.324-10.668 90.934-7.11 26.612-16.090 48.916-26.934 66.922-10.844 18.008-26.048 33.218-45.598 45.62-19.558 12.406-38.492 22.010-56.8 28.81-18.312 6.8-41.958 12.104-70.934 15.906-28.982 3.796-54.934 6.102-77.872 6.9-22.934 0.8-51.82 1.2-86.664 1.2s-63.644-0.402-86.4-1.2c-22.756-0.798-48.622-3.104-77.6-6.9-28.978-3.802-52.622-9.104-70.934-15.906-18.31-6.802-37.244-16.404-56.8-28.81-19.556-12.404-34.756-27.612-45.6-45.62-10.846-18.006-19.824-40.31-26.934-66.922-7.11-26.61-10.666-56.922-10.666-90.934zM256 608.004c0-53.019 28.654-96 64-96s64 42.981 64 96c0 53.019-28.654 96-64 96s-64-42.981-64-96zM640 608.004c0-53.019 28.654-96 64-96s64 42.981 64 96c0 53.019-28.654 96-64 96s-64-42.981-64-96z"></path>
</symbol>
<symbol id="icon-github4" viewBox="0 0 1024 1024">
	<title>github4</title>
	<path class="path1" d="M512 0c-282.77 0-512 229.23-512 512s229.23 512 512 512 512-229.23 512-512-229.23-512-512-512zM816.056 816.056c-39.518 39.516-85.512 70.532-136.708 92.186-13.006 5.5-26.214 10.328-39.6 14.492v-76.734c0-40.334-13.834-70-41.5-89 17.334-1.666 33.25-4 47.75-7s29.834-7.334 46-13 30.666-12.416 43.5-20.25 25.166-18 37-30.5 21.75-26.666 29.75-42.5 14.334-34.834 19-57 7-46.584 7-73.25c0-51.666-16.834-95.666-50.5-132 15.334-40 13.666-83.5-5-130.5l-12.5-1.5c-8.666-1-24.25 2.666-46.75 11s-47.75 22-75.75 41c-39.666-11-80.834-16.5-123.5-16.5-43 0-84 5.5-123 16.5-17.666-12-34.416-21.916-50.25-29.75s-28.5-13.166-38-16-18.334-4.584-26.5-5.25-13.416-0.834-15.75-0.5-4 0.666-5 1c-18.666 47.334-20.334 90.834-5 130.5-33.666 36.334-50.5 80.334-50.5 132 0 26.666 2.334 51.084 7 73.25s11 41.166 19 57 17.916 30 29.75 42.5 24.166 22.666 37 30.5 27.334 14.584 43.5 20.25 31.5 10 46 13 30.416 5.334 47.75 7c-27.334 18.666-41 48.334-41 89v78.23c-15.098-4.494-29.98-9.804-44.6-15.988-51.194-21.654-97.188-52.67-136.706-92.186-39.516-39.518-70.534-85.512-92.186-136.708-22.398-52.958-33.756-109.262-33.756-167.348s11.358-114.39 33.758-167.35c21.654-51.194 52.67-97.188 92.186-136.706s85.512-70.534 136.706-92.186c52.96-22.4 109.264-33.758 167.35-33.758s114.39 11.358 167.35 33.758c51.196 21.654 97.19 52.67 136.708 92.186 39.516 39.516 70.532 85.512 92.186 136.706 22.398 52.96 33.756 109.264 33.756 167.35s-11.358 114.39-33.758 167.35c-21.654 51.194-52.67 97.19-92.186 136.706z"></path>
</symbol>
<symbol id="icon-linkedin" viewBox="0 0 1024 1024">
	<title>linkedin</title>
	<path class="path1" d="M852 0h-680c-94.6 0-172 77.4-172 172v680c0 94.6 77.4 172 172 172h680c94.6 0 172-77.4 172-172v-680c0-94.6-77.4-172-172-172zM384 832h-128v-448h128v448zM320 320c-35.346 0-64-28.654-64-64s28.654-64 64-64 64 28.654 64 64-28.654 64-64 64zM832 832h-128v-256c0-35.346-28.654-64-64-64s-64 28.654-64 64v256h-128v-448h128v79.472c26.398-36.264 66.752-79.472 112-79.472 79.53 0 144 71.634 144 160v288z"></path>
</symbol>
<symbol id="icon-linkedin2" viewBox="0 0 1024 1024">
	<title>linkedin2</title>
	<path class="path1" d="M384 384h177.106v90.782h2.532c24.64-44.194 84.958-90.782 174.842-90.782 186.946 0 221.52 116.376 221.52 267.734v308.266h-184.61v-273.278c0-65.184-1.334-149.026-96.028-149.026-96.148 0-110.82 70.986-110.82 144.292v278.012h-184.542v-576z"></path>
	<path class="path2" d="M64 384h192v576h-192v-576z"></path>
	<path class="path3" d="M256 224c0 53.019-42.981 96-96 96s-96-42.981-96-96c0-53.019 42.981-96 96-96s96 42.981 96 96z"></path>
</symbol>
<symbol id="icon-foursquare" viewBox="0 0 1024 1024">
	<title>foursquare</title>
	<path class="path1" d="M851.564 90.090c-12.060-16.404-31.204-26.090-51.564-26.090h-608c-35.346 0-64 28.654-64 64v768c0 25.884 15.592 49.222 39.508 59.128 7.918 3.28 16.234 4.874 24.478 4.874 16.656 0 33.026-6.504 45.268-18.748l237.256-237.254h165.49c27.992 0 52.736-18.192 61.086-44.91l160-512c6.074-19.432 2.538-40.596-9.522-57zM672.948 320h-224.948c-35.346 0-64 28.654-64 64s28.654 64 64 64h184.948l-40 128h-144.948c-16.974 0-33.252 6.742-45.254 18.746l-146.746 146.744v-549.49h456.948l-40 128z"></path>
</symbol>
</defs>
</svg>
